<svg xmlns="http://www.w3.org/2000/svg" width="322.38" height="71.378" viewBox="0 0 322.38 71.378">
  <g id="Group_2008" data-name="Group 2008" transform="translate(1.151)">
    <path id="Path_1950" data-name="Path 1950" d="M338.69,1901.282c-9.729-12.408-40.411-18.674-61.345-13.318-13.063,3.342-26.682,8.345-39.574,11.644-27.94,7.148-45.8,9.995-71.756-2.353-27.419-13.042-49.837-9.363-78.3-1.238-26.5,7.565-42.565,6.891-67.894-3.635" transform="translate(-19.822 -1862.641)" fill="none" stroke="#148414" stroke-miterlimit="10" stroke-width="6"/>
    <g id="Group_2004" data-name="Group 2004" transform="translate(156.843 4.141)">
      <path id="Path_1951" data-name="Path 1951" d="M213.451,1868.6c-1.158,2.2-3.84,3.033-6.253,3.644-1.752.444-3.507.882-5.288,1.186-2.526.432-5.147.606-7.48,1.669a17.35,17.35,0,0,0-4.078,2.8,18.408,18.408,0,0,0-2.768,2.855,11.415,11.415,0,0,0-2.1,4.961,20.971,20.971,0,0,0-.2,3.334,7.556,7.556,0,0,0,.659,3.765,7.761,7.761,0,0,0,3.026,2.591,14.931,14.931,0,0,0,3.916,1.829c3.447.853,6.983-.818,10.024-2.651a12.193,12.193,0,0,0,3.856-3.2c1.239-1.764,1.538-4,2.3-6.017.465-1.228,1.107-2.381,1.637-3.582C212.523,1877.682,213,1873.12,213.451,1868.6Z" transform="translate(-177.297 -1866.781)" fill="#53b446"/>
      <path id="Path_1952" data-name="Path 1952" d="M182.68,1902.288a24.223,24.223,0,0,0,5.793-3.311c6.373,1.458,14.069-1.024,18.487-5.441,3.19-3.191,3.518-5.6,4.8-9.384a71.3,71.3,0,0,0,2.614-11.7c.346-3.371.838-5.9.291-5.656-5.522,2.477-1.965.878-5.769,2.585-4.406,1.977-5.921,1.908-10.6,2.559-3.283.458-6.6,1-9.548,2.6-7.931,4.293-9.262,11.7-5.769,19.469a2,2,0,0,0,.889.873l-.1.1c-1.909,1.9-4.15,3.484-6,5.42C175.562,1902.715,181.669,1902.679,182.68,1902.288Zm14.368-11.259c2.678-2.669-5.345-4-7.237-2.115-.073.072-.144.145-.217.218a9.562,9.562,0,0,1,1.364-8.4c2.716-3.632,6.491-4.321,10.653-4.908,1.67-.235,6.841-2.053,8.7-2.584-.291,4.294-3.1,10.283-5.606,13.769a22.628,22.628,0,0,1-11.566,7.911C194.478,1893.628,195.771,1892.3,197.048,1891.029Z" transform="translate(-177.297 -1866.781)" fill="#148414"/>
    </g>
    <g id="Group_2005" data-name="Group 2005" transform="translate(91.882 27.775)">
      <path id="Path_1953" data-name="Path 1953" d="M142.57,1931.938a12.807,12.807,0,0,1-4.791-4.371,14.639,14.639,0,0,1-1.479-5.006,105.973,105.973,0,0,1-1.305-14.281,14.526,14.526,0,0,0-.78-5.448,9.659,9.659,0,0,0-3.373-3.88c-2.057-1.474-4.721-2.478-7.111-1.647-2.126.74-3.53,2.737-4.656,4.687-1.244,2.154-2.357,4.516-2.284,7a15.63,15.63,0,0,0,1.848,5.982c1.353,2.914,2.811,5.959,5.416,7.841,1.276.922,2.76,1.51,4.1,2.332s2.546,1.882,3.883,2.728a25.814,25.814,0,0,0,3.749,1.872q4.149,1.763,8.445,3.148A14.048,14.048,0,0,1,142.57,1931.938Z" transform="translate(-112.071 -1890.415)" fill="#53b446"/>
      <path id="Path_1954" data-name="Path 1954" d="M137.366,1932.079a28.4,28.4,0,0,0,9.378,1.938c2.628.072-1.656-1.865-2.61-2.817-5.062-5.052-4.077-16.539-4.923-22.4-.61-4.226-1.788-8.191-5.066-11.109-4.154-3.7-9.275-3.662-14.5-4.054a3.024,3.024,0,0,0-.332.006,23.915,23.915,0,0,0-3.406-2.458c-.828-.492-3.033-1.358-3.7-.176-.678,1.207,1.3,2.595,2.076,3.062a10.925,10.925,0,0,1,3.453,3.484,1.49,1.49,0,0,0-.149.117C103.746,1912.706,124,1926.176,137.366,1932.079Zm-16.061-15.435c-2.2-4.683-1.475-8.309.908-11.83,1.6,1.051,4.424,1.976,3.929-.158a19.287,19.287,0,0,0-1.174-3.468c-.474-1-.313-1.314-1.023-1.993-.1-.174-.192-.353-.3-.523,3.85.345,7.024,1.057,8.238,5.344a28.679,28.679,0,0,1,.966,5.732c.3,4.1.184,8.2.8,12.278a20.748,20.748,0,0,0,1.2,4.457C129.647,1924,123.978,1922.329,121.305,1916.644Z" transform="translate(-112.071 -1890.415)" fill="#148414"/>
    </g>
    <g id="Group_2006" data-name="Group 2006" transform="translate(32.341)">
      <path id="Path_1955" data-name="Path 1955" d="M90.717,1865.515l-11.664-.306a51.794,51.794,0,0,0-5.655.059,19.2,19.2,0,0,0-9.169,3.005,30.366,30.366,0,0,0-3.92,3.354,20.278,20.278,0,0,0-2.911,3.22A12.857,12.857,0,0,0,55.642,1879a11.322,11.322,0,0,0,.553,7.707,8.893,8.893,0,0,0,4.976,4.3,10.155,10.155,0,0,0,6.618-.035,21.634,21.634,0,0,0,2.64-1.182l.895-.45a16.523,16.523,0,0,0,1.609-.884c2.591-1.687,4.019-4.681,4.888-7.648a51.726,51.726,0,0,1,2.273-7.48C82.116,1869.005,86.441,1865.835,90.717,1865.515Z" transform="translate(-52.163 -1862.641)" fill="#53b446"/>
      <path id="Path_1956" data-name="Path 1956" d="M74.623,1862.88c5.216-.69,10.1.281,15.173.782.653-.075,2.812.226,3.331.246,3.135.117.88,1.533-.626,2.154-.947.391-2.565,1.386-3.477,1.891-2.664,1.51-4.208,3.971-6.071,6.75-2.18,3.252-2.681,7.244-4.414,10.7-2.781,5.549-8.907,8.69-14.951,8.769a16.656,16.656,0,0,1-7.067,6.115c-.97.423-3.509,1.017-4.051-.361-.562-1.428,1.814-2.615,2.719-3.024,1.441-.651,2.425-3.283,3.02-4.824a2.516,2.516,0,0,1-1.413-.4c-8.366-6-4.125-17.387,2.657-22.843C63.752,1865.375,69.216,1863.595,74.623,1862.88Zm-13.388,21.812c1.392-1.3,5.334-2.731,5.385-.46a16.53,16.53,0,0,1-1.025,5.98,2.242,2.242,0,0,1,.376-.02c7.186.4,8.538-11.309,11.489-16.005a27.646,27.646,0,0,1,5.83-6.559c-5.439-.307-10.915-1.033-16.01,1.212C61.4,1871.432,58.257,1879.283,61.235,1884.692Z" transform="translate(-52.163 -1862.641)" fill="#148414"/>
    </g>
    <g id="Group_2007" data-name="Group 2007" transform="translate(246.923 26.154)">
      <path id="Path_1957" data-name="Path 1957" d="M316.092,1926.29a7.876,7.876,0,0,1-5.34-2.1,23.4,23.4,0,0,1-3.744-4.508,36.39,36.39,0,0,1-3.548-5.829c-1.4-3.123-1.926-6.638-3.743-9.54a13.017,13.017,0,0,0-11.915-5.841,26.545,26.545,0,0,0-5.506,1.274,15.177,15.177,0,0,0-5.325,2.429c-3.055,2.51-3.669,7.137-2.42,10.889s4,6.795,6.833,9.553a25.63,25.63,0,0,0,2.709,2.373,19.539,19.539,0,0,0,9.158,3.337,58.468,58.468,0,0,0,9.841.115l4.851-.217C310.932,1928.093,314.038,1927.929,316.092,1926.29Z" transform="translate(-267.877 -1888.795)" fill="#53b446"/>
      <path id="Path_1958" data-name="Path 1958" d="M310.712,1928.826a21.233,21.233,0,0,0,4.274-.763c4.615-1.383,5.807-2.913.947-3.966-7.4-1.6-9.528-14.677-12.732-20.4-4.206-7.514-12.025-9.972-20.035-9.287-4.938-3.74-2.593-2.526-7.072-4.651-3.481-1.651-11.667-1.1-6.611,1.035,4.533,1.912,5.042,2.955,8.067,6.428-11.853,4.923-8.109,18.237-.963,25.8C285.8,1932.776,298.824,1930.091,310.712,1928.826Zm-27.193-6.4c-5.652-5.4-8.769-15.309-2.148-20.194q.625.921,1.233,1.867c.935,1.463,7.788,2.987,6.967.184a19.609,19.609,0,0,0-2.669-5.489c9.58-.663,11.521,10.478,15.033,17.578a25.394,25.394,0,0,0,6.283,8.508C299.862,1923.768,290.353,1928.961,283.519,1922.431Z" transform="translate(-267.877 -1888.795)" fill="#148414"/>
      <path id="Path_1959" data-name="Path 1959" d="M317.611,1926.448" transform="translate(-267.877 -1888.795)" fill="#148414"/>
    </g>
  </g>
</svg>
