<svg xmlns="http://www.w3.org/2000/svg" width="20.556" height="28.5" viewBox="0 0 20.556 28.5">
  <g id="Group_2055" data-name="Group 2055" transform="translate(0.5 0.5)">
    <g id="Group_2054" data-name="Group 2054">
      <path id="Path_1973" data-name="Path 1973" d="M24.522,100.371a9.941,9.941,0,0,0-9.778,10.1,10.264,10.264,0,0,0,1.815,5.847l7.359,11.226a.717.717,0,0,0,1.206,0l7.286-11.126a10.252,10.252,0,0,0,1.89-5.947A9.942,9.942,0,0,0,24.522,100.371Zm0,13.078a3.911,3.911,0,1,1,3.911-3.911A3.911,3.911,0,0,1,24.522,113.449Z" transform="translate(-14.744 -100.371)" fill="#148414" stroke="#148414" stroke-miterlimit="10" stroke-width="1"/>
    </g>
  </g>
</svg>
