<svg xmlns="http://www.w3.org/2000/svg" width="38.86" height="50.5" viewBox="0 0 38.86 50.5">
  <g id="Group_1518" data-name="Group 1518" transform="translate(0.271 0.253)">
    <g id="Group_1517" data-name="Group 1517">
      <g id="Group_1516" data-name="Group 1516">
        <g id="Phone">
          <path id="Path_1549" data-name="Path 1549" d="M2201.732,252.212a1.913,1.913,0,0,1,.752.372c.73.471,4.572,5.786,4.276,11.45a16.951,16.951,0,0,1-3.975,4.862s0,2.395,4.278,9.055c4.377,6.681,6.556,7.676,6.556,7.676a16.815,16.815,0,0,1,6.174-1.572c5.373,2.108,8.61,7.811,8.735,8.672.552,2.724-4.481,5.273-4.481,5.273a8.964,8.964,0,0,1-3.411-.118c-8.849-1.927-18.093-15.916-18.559-16.643-.234-.363-11.957-18.746-6.252-26.772,0,0,3.62-2.753,5.907-2.255m.433-1.989c-3.083-.671-6.9,2.039-7.55,2.626l-.242.156-.164.277c-6.419,8.912,4.772,26.867,6.173,29.046,1.088,1.7,10.375,15.486,19.821,17.543a10.389,10.389,0,0,0,4.15.07l.32-.034.242-.156c1.047-.5,6.387-3.5,5.576-7.43-.294-1.522-4.04-7.753-9.988-10.09l-.376-.186-.42.013a17.071,17.071,0,0,0-5.91,1.317c-.886-.714-2.572-2.539-5.16-6.435-2.489-3.875-3.448-6.167-3.729-7.269a22.2,22.2,0,0,0,3.633-4.729l.186-.376-.013-.419c.348-6.381-3.882-12.3-5.123-13.3A3.4,3.4,0,0,0,2202.165,250.223Z" transform="translate(-2192.238 -250.117)" fill="#e385a5" stroke="#e280a1" stroke-miterlimit="10" stroke-width="0.5"/>
        </g>
      </g>
    </g>
  </g>
</svg>
