<svg xmlns="http://www.w3.org/2000/svg" width="15.618" height="20.083" viewBox="0 0 15.618 20.083">
  <g id="Group_2050" data-name="Group 2050" transform="translate(0.357 0.27)">
    <g id="Group_2049" data-name="Group 2049">
      <g id="Group_2048" data-name="Group 2048">
        <g id="Phone">
          <path id="Path_1972" data-name="Path 1972" d="M242.528,104.659a.737.737,0,0,1,.294.146,6.71,6.71,0,0,1,1.673,4.479,6.62,6.62,0,0,1-1.555,1.9s0,.937,1.674,3.543c1.712,2.614,2.565,3,2.565,3a6.6,6.6,0,0,1,2.416-.615,6.713,6.713,0,0,1,3.417,3.393c.216,1.066-1.753,2.063-1.753,2.063a3.5,3.5,0,0,1-1.335-.046c-3.462-.754-7.079-6.227-7.261-6.512-.092-.142-4.679-7.334-2.446-10.475,0,0,1.416-1.077,2.311-.882m.169-.778a4.213,4.213,0,0,0-2.954,1.027l-.094.061-.065.109c-2.511,3.487,1.868,10.512,2.416,11.365.426.663,4.059,6.059,7.755,6.863a4.057,4.057,0,0,0,1.624.028l.125-.014.1-.06c.409-.2,2.5-1.372,2.181-2.908a7.468,7.468,0,0,0-3.908-3.947l-.147-.073-.164,0a6.68,6.68,0,0,0-2.313.515,12.065,12.065,0,0,1-2.019-2.518,11.212,11.212,0,0,1-1.458-2.844,8.694,8.694,0,0,0,1.421-1.85l.073-.147-.005-.164a7.6,7.6,0,0,0-2-5.2A1.32,1.32,0,0,0,242.7,103.881Z" transform="translate(-238.813 -103.839)" fill="#fff" stroke="#fff" stroke-miterlimit="10" stroke-width="0.5"/>
        </g>
      </g>
    </g>
  </g>
</svg>
