<svg xmlns="http://www.w3.org/2000/svg" width="17.371" height="22.356" viewBox="0 0 17.371 22.356">
  <g id="Group_1514" data-name="Group 1514" transform="translate(0.368 0.273)">
    <g id="Group_1513" data-name="Group 1513">
      <g id="Group_1512" data-name="Group 1512">
        <g id="Phone">
          <path id="Path_1548" data-name="Path 1548" d="M2175.658,383.913a.834.834,0,0,1,.328.162,7.5,7.5,0,0,1,1.868,5,7.413,7.413,0,0,1-1.736,2.123s0,1.046,1.868,3.954c1.911,2.918,2.863,3.352,2.863,3.352a7.338,7.338,0,0,1,2.7-.686,7.487,7.487,0,0,1,3.814,3.787c.241,1.189-1.957,2.3-1.957,2.3a3.923,3.923,0,0,1-1.489-.051c-3.864-.842-7.9-6.95-8.1-7.268-.1-.158-5.221-8.186-2.73-11.691,0,0,1.581-1.2,2.58-.984m.189-.869c-1.346-.293-3.014.89-3.3,1.147l-.106.068-.071.121c-2.8,3.892,2.084,11.732,2.7,12.684.476.74,4.531,6.762,8.656,7.66a4.516,4.516,0,0,0,1.812.031l.14-.015.106-.068c.457-.219,2.789-1.53,2.434-3.245a8.342,8.342,0,0,0-4.361-4.406l-.164-.081-.184.006a7.466,7.466,0,0,0-2.581.575,13.462,13.462,0,0,1-2.253-2.81,12.521,12.521,0,0,1-1.628-3.174,9.7,9.7,0,0,0,1.586-2.065l.082-.165-.006-.183a8.5,8.5,0,0,0-2.237-5.808A1.5,1.5,0,0,0,2175.847,383.044Z" transform="translate(-2171.512 -382.998)" fill="#fff" stroke="#fff" stroke-miterlimit="10" stroke-width="0.5"/>
        </g>
      </g>
    </g>
  </g>
</svg>
