<svg xmlns="http://www.w3.org/2000/svg" width="28.02" height="23.486" viewBox="0 0 28.02 23.486">
  <g id="Group_2030" data-name="Group 2030" transform="translate(-85.811 -435.097)">
    <g id="Group_2029" data-name="Group 2029">
      <path id="Path_1969" data-name="Path 1969" d="M109.621,437.322c-2.979-1.469-7.187.638-9.408,4.7-.075.141-.337.6-.408.745-.021.168-.121-.314-.314-.663-2.047-4.186-6.214-6.462-9.264-5.072-3.029,1.372-3.817,5.84-1.754,9.968a10.863,10.863,0,0,0,3.045,3.77s7.289,5.642,8.023,6.24a.105.105,0,0,0,.128,0l8.139-6A11.113,11.113,0,0,0,111,447.339C113.208,443.278,112.591,438.788,109.621,437.322Z" fill="#e280a1" stroke="#e280a1" stroke-miterlimit="10" stroke-width="3"/>
    </g>
  </g>
</svg>
