<svg xmlns="http://www.w3.org/2000/svg" width="14" height="19.281" viewBox="0 0 14 19.281">
  <g id="Group_1994" data-name="Group 1994" transform="translate(0.5 0.5)">
    <g id="Group_1993" data-name="Group 1993">
      <path id="Path_1948" data-name="Path 1948" d="M17.668,2040.384a6.608,6.608,0,0,0-6.5,6.712,6.821,6.821,0,0,0,1.207,3.887l4.892,7.463a.477.477,0,0,0,.8,0l4.843-7.4a6.823,6.823,0,0,0,1.256-3.955A6.608,6.608,0,0,0,17.668,2040.384Zm0,9.594a3.5,3.5,0,1,1,3.5-3.5A3.5,3.5,0,0,1,17.668,2049.978Z" transform="translate(-11.168 -2040.384)" fill="#fff" stroke="#fff" stroke-miterlimit="10" stroke-width="1"/>
    </g>
  </g>
</svg>
