<svg xmlns="http://www.w3.org/2000/svg" width="17" height="23.5" viewBox="0 0 17 23.5">
  <g id="Group_2055" data-name="Group 2055" transform="translate(0.5 0.5)">
    <g id="Group_2054" data-name="Group 2054">
      <path id="Path_1973" data-name="Path 1973" d="M22.744,100.371a8.134,8.134,0,0,0-8,8.262,8.4,8.4,0,0,0,1.485,4.784L22.25,122.6a.587.587,0,0,0,.987,0l5.961-9.1a8.388,8.388,0,0,0,1.546-4.866A8.134,8.134,0,0,0,22.744,100.371Zm0,10.7a3.2,3.2,0,1,1,3.2-3.2A3.2,3.2,0,0,1,22.744,111.071Z" transform="translate(-14.744 -100.371)" fill="#148414" stroke="#148414" stroke-miterlimit="10" stroke-width="1"/>
    </g>
  </g>
</svg>
