<svg xmlns="http://www.w3.org/2000/svg" width="89.994" height="81.531" viewBox="0 0 89.994 81.531">
  <g id="Group_2211" data-name="Group 2211" transform="translate(-1.499 -1.426)">
    <g id="Logo" transform="translate(-1 1.38)">
      <rect id="Rectangle_1406" data-name="Rectangle 1406" width="89.994" height="48.956" rx="10" transform="translate(2.499 32.62)" fill="#fff"/>
      <g id="Group_2061" data-name="Group 2061" transform="translate(15.713)">
        <g id="Group_2058" data-name="Group 2058">
          <path id="Path_2091" data-name="Path 2091" d="M32,0A32,32,0,1,1,0,32,32,32,0,0,1,32,0Z" transform="translate(0.283 0.046)" fill="#fff"/>
          <circle id="Ellipse_96" data-name="Ellipse 96" cx="29.499" cy="29.499" r="29.499" transform="translate(2.784 2.784)" fill="#148414" stroke="#015600" stroke-miterlimit="10" stroke-width="2"/>
        </g>
        <g id="Group_2060" data-name="Group 2060" transform="translate(18.928 7.212)">
          <path id="Path_1974" data-name="Path 1974" d="M58.941,19.563a1.586,1.586,0,0,1,.93.545L62.1,22.239a14.33,14.33,0,0,1,3.345,4.109,16.3,16.3,0,0,0,.74,1.617c.12.2.257.382.372.58a6.518,6.518,0,0,1,.464,1.061l1.85,5.022a1.037,1.037,0,0,1,.067.8.812.812,0,0,1-.473.386,21.024,21.024,0,0,1-4.317.971,40.429,40.429,0,0,1-4.487.338c-1.238.027-4.352-.1-4.506-.167.393-1.815.862-3.891.02-5.545-.26-.511-.5-1.483-.722-2.012a2.255,2.255,0,0,1-.293-1.541,4.952,4.952,0,0,1-2.639,3.059c-.64.3-1.335.45-2,.684a8.626,8.626,0,0,0-3.12,1.93,2.508,2.508,0,0,1-.822.627,1.9,1.9,0,0,1-1.955-.841,4.176,4.176,0,0,1-.946-3.81,5.045,5.045,0,0,1,.752-1.436c2.123-2.92,4.214-5.3,6.5-8.184a4.581,4.581,0,0,0,1.239-2.667c-.056-1.044-1.025-1.821-1.272-2.837l8.929,4.77c.73.39,1.534.873,1.717,1.679" transform="translate(-42.315 -14.073)" fill="#fff"/>
          <g id="Group_2059" data-name="Group 2059">
            <path id="Path_1975" data-name="Path 1975" d="M50.149,19.71c-1.479,1.955-3.017,3.81-4.516,5.731-.6.772-1.221,1.5-1.833,2.257a6.524,6.524,0,0,0-1.374,2.335.85.85,0,0,0-.038.241c-.069.057-.115.3-.04.339.054.027.106-.092.119-.2.1.019.162-.195.264-.38A12.363,12.363,0,0,1,44.2,27.989c.617-.725,1.2-1.556,1.8-2.319,1.4-1.8,2.834-3.548,4.213-5.384C50.577,19.8,50.67,19.022,50.149,19.71Z" transform="translate(-42.31 -14.177)" stroke="#333" stroke-miterlimit="10" stroke-width="1"/>
            <path id="Path_1976" data-name="Path 1976" d="M54.294,26.644a.117.117,0,0,0-.127-.06.284.284,0,0,0-.172.093.551.551,0,0,0-.055.473c.031.115.124.267.225.168l.013-.011a1.277,1.277,0,0,1,.085.234.739.739,0,0,1,.032.287.048.048,0,0,0,0,.015l0,.014c0,.037-.007.074-.012.111a.758.758,0,0,1-.025.131,2.3,2.3,0,0,1-.117.359,3.612,3.612,0,0,1-.348.628A3.7,3.7,0,0,1,53,30.124a5.45,5.45,0,0,1-1.673,1.029c-.332.107-.485.165-.7.214a7.232,7.232,0,0,0-1.614.568,4.032,4.032,0,0,0-.957.767l0,.011a.445.445,0,0,0,.1.208,1.946,1.946,0,0,1,.471-.39,6.074,6.074,0,0,1,1.731-.66,10.328,10.328,0,0,0,2.254-.818,5.2,5.2,0,0,0,.828-.544c.039-.039.078-.078.116-.12a4.423,4.423,0,0,0,.936-1.54A2.581,2.581,0,0,0,54.294,26.644Z" transform="translate(-42.428 -14.323)" stroke="#333" stroke-miterlimit="10" stroke-width="1"/>
            <path id="Path_1977" data-name="Path 1977" d="M46.989,33.5c.011-.052.033-.255-.045-.23a2.874,2.874,0,0,0-.982.783,1.183,1.183,0,0,1-.447.309,1,1,0,0,1-.437,0,2.678,2.678,0,0,1-1.752-1.094,2.328,2.328,0,0,1-.3-.573,3.849,3.849,0,0,1-.129-.631c-.017-.1-.072-.09-.12-.044a.562.562,0,0,0-.131.3,2.334,2.334,0,0,0,1.133,2.2,3.091,3.091,0,0,0,.976.431,1.736,1.736,0,0,0,.431.052.921.921,0,0,0,.55-.237c.375-.306.668-.835,1.1-.979C46.91,33.765,46.97,33.594,46.989,33.5Z" transform="translate(-42.317 -14.433)" stroke="#333" stroke-miterlimit="10" stroke-width="1"/>
            <path id="Path_1978" data-name="Path 1978" d="M54.183,16.886a12.946,12.946,0,0,0-2.056-1.756,5.783,5.783,0,0,0-2.383-1.062c-.112-.015-.171.091-.186.225a.144.144,0,0,0-.134.082.637.637,0,0,0,.024.591c.359.563.677,1.139.975,1.721.146.284.29.569.435.854.073.144.145.289.223.433a.905.905,0,0,0,.268.362c.2.126.2-.244.186-.324a3.583,3.583,0,0,0-.385-.982c-.137-.291-.278-.582-.426-.871-.231-.452-.475-.9-.741-1.344a6.467,6.467,0,0,1,2.093.97,17.494,17.494,0,0,1,2.02,1.536c.089.077.148-.072.156-.114A.386.386,0,0,0,54.183,16.886Z" transform="translate(-42.454 -14.067)" stroke="#333" stroke-miterlimit="10" stroke-width="1"/>
            <path id="Path_1979" data-name="Path 1979" d="M55.739,17.832a11.631,11.631,0,0,1,3.732,1.832,21.633,21.633,0,0,1,3.108,2.7,22.342,22.342,0,0,1,2.625,3.3c.384.592.723,1.2,1.048,1.805.351.657.685,1.318.983,1.986A15.608,15.608,0,0,1,68,31.491c.2.687.407,1.37.605,2.057.023.077.477,1.768.5,1.845.053-.022.134-.057.187-.077-.172-.612-.8-2.709-.97-3.318a18.715,18.715,0,0,0-.756-2.144c-.283-.684-.559-1.42-.906-2.091-.333-.643-.676-1.285-1.059-1.914a22.263,22.263,0,0,0-2.559-3.4,22.5,22.5,0,0,0-3.094-2.85,13.086,13.086,0,0,0-3.712-2.056c-.164-.054-.328-.1-.494-.146-.113-.029-.137.078-.138.152S55.633,17.805,55.739,17.832Z" transform="translate(-42.582 -14.135)" stroke="#333" stroke-miterlimit="10" stroke-width="1"/>
            <path id="Path_1980" data-name="Path 1980" d="M55.456,33.882a15.278,15.278,0,0,1-.185,3.189c.024,0,.3.027.333.026a16.28,16.28,0,0,0,.226-2.875,10.545,10.545,0,0,0-.707-3.895c-.063-.154-.132-.306-.206-.455-.05-.1-.161-.069-.225-.032s-.2.146-.153.242A9.57,9.57,0,0,1,55.456,33.882Z" transform="translate(-42.56 -14.389)" stroke="#333" stroke-miterlimit="10" stroke-width="1"/>
          </g>
        </g>
      </g>
      <rect id="_Rectangle_" data-name="&lt;Rectangle&gt;" width="84.893" height="43.584" rx="8" transform="translate(4.999 35.12)" fill="#fff" stroke="#025801" stroke-miterlimit="10" stroke-width="2"/>
      <g id="Group_2064" data-name="Group 2064" transform="translate(12.249 38.904)">
        <text id="HESTEPENSION" transform="translate(0 32.073)" font-size="16" font-family="BebasNeue, Bebas Neue"><tspan x="0" y="0">HESTEPENSION</tspan></text>
        <g id="_Group_" data-name="&lt;Group&gt;" transform="translate(11.836 -1)">
          <text id="H_HOLT" data-name="H    HOLT" transform="translate(0 17)" font-size="19" font-family="BebasNeue, Bebas Neue"><tspan x="0" y="0" xml:space="preserve">H    HOLT</tspan></text>
          <g id="Group_2063" data-name="Group 2063" transform="translate(8.815 3.997)">
            <path id="Path_1981" data-name="Path 1981" d="M43.15,48.755c.109,2.167.173,4.24.3,6.346a4.383,4.383,0,0,0,.327,1.447,1.912,1.912,0,0,0,.965,1.052c.223.093.648.19.838.04a3.456,3.456,0,0,0,.4-.349,6.606,6.606,0,0,0,.961-3.091c.137-1.145-.039-2.214.063-3.512a7.776,7.776,0,0,0,.12-.989,1.29,1.29,0,0,1,.031-.6.765.765,0,0,1,.678-.349,6.889,6.889,0,0,1,1.807.182.632.632,0,0,1,.6.658A6.652,6.652,0,0,1,49.92,52.7c-.307,1-.419,2.038-.7,3.05-.152.541-.494,1.319-.663,1.853a6.45,6.45,0,0,1-1.837,2.636,5.942,5.942,0,0,1-.815.4,2.127,2.127,0,0,1-1.691.162,4.38,4.38,0,0,1-1.526-.881,2.846,2.846,0,0,1-.571-.592,3.5,3.5,0,0,1-.331-.7,23.322,23.322,0,0,1-1.191-3.7,16.548,16.548,0,0,1-.27-2.092,30.3,30.3,0,0,1-.269-3.809c.012-.22.73-.232.86-.216A19.748,19.748,0,0,0,43.15,48.755Z" transform="translate(-39.913 -48.487)" fill="#b0b0b0" stroke="#000" stroke-miterlimit="10" stroke-width="0.5" opacity="0.6"/>
            <g id="_Group_2" data-name="&lt;Group&gt;">
              <g id="Group_2062" data-name="Group 2062">
                <path id="Path_1982" data-name="Path 1982" d="M43.261,48.491a8.571,8.571,0,0,0-1.585.017,13.544,13.544,0,0,0-1.572.227c-.125.025-.106.412,0,.39a13.323,13.323,0,0,1,1.572-.227,13.578,13.578,0,0,1,1.585-.02C43.379,48.882,43.381,48.5,43.261,48.491Z" transform="translate(-39.911 -48.461)" stroke="#000" stroke-miterlimit="10" stroke-width="0.5"/>
                <path id="Path_1983" data-name="Path 1983" d="M50.779,48.859a8.641,8.641,0,0,0-1.57-.267,13.243,13.243,0,0,0-1.586-.058c-.128,0-.164.386-.055.384a13.245,13.245,0,0,1,1.586.058,14.041,14.041,0,0,1,1.571.264C50.84,49.266,50.9,48.894,50.779,48.859Z" transform="translate(-40.473 -48.467)" stroke="#000" stroke-miterlimit="10" stroke-width="0.5"/>
                <path id="Path_1984" data-name="Path 1984" d="M47.431,48.839c0-.056-.019-.193-.1-.194s-.1.139-.1.191c-.027.657.009,1.314,0,1.971-.014.683-.083,1.364-.15,2.043a11.489,11.489,0,0,1-.693,3.754c-.183.4-.515.991-1.043.992a.961.961,0,0,1-.691-.395,2.484,2.484,0,0,1-.4-.637,5.576,5.576,0,0,1-.376-1.479c-.088-.614-.146-1.231-.179-1.85-.042-.774-.033-1.549-.084-2.323a7.284,7.284,0,0,1,0-2.178.262.262,0,0,0-.032-.237c-.055-.054-.109,0-.123.061a6.412,6.412,0,0,0-.054,2.065c.058.718.056,1.44.084,2.159s.08,1.411.169,2.114a7.763,7.763,0,0,0,.327,1.573,2.473,2.473,0,0,0,.928,1.347c.519.315,1.009-.046,1.306-.454a4.64,4.64,0,0,0,.708-1.722,15.83,15.83,0,0,0,.271-1.969c.081-.825.17-1.648.216-2.476C47.455,50.411,47.4,49.624,47.431,48.839Z" transform="translate(-40.161 -48.462)" stroke="#000" stroke-miterlimit="10" stroke-width="0.5"/>
                <path id="Path_1985" data-name="Path 1985" d="M50.286,48.94c-.061,0-.074.121-.074.166a22.8,22.8,0,0,1-1.142,6.642,18.409,18.409,0,0,1-.756,2.146,6.773,6.773,0,0,1-1.159,1.888,3.121,3.121,0,0,1-1.723,1,2.651,2.651,0,0,1-1.99-.425,5.01,5.01,0,0,1-1.449-1.661,9.781,9.781,0,0,1-.907-2.153c-.115-.39-.2-.786-.284-1.186-.124-.6-.247-1.191-.353-1.79s-.2-1.2-.261-1.8c-.06-.583-.117-1.176-.133-1.763a5.037,5.037,0,0,1,.041-.868c.008-.054,0-.18-.052-.206s-.083.069-.091.115a7.788,7.788,0,0,0,.013,1.839c.056.615.105,1.228.192,1.84s.2,1.225.321,1.832c.107.538.211,1.079.338,1.612a11,11,0,0,0,.8,2.267,6.509,6.509,0,0,0,1.353,1.927,2.881,2.881,0,0,0,1.9.838,2.977,2.977,0,0,0,1.961-.7,8.346,8.346,0,0,0,2.208-3.984,25.9,25.9,0,0,0,1.3-6.521c.014-.292.023-.584.024-.877C50.36,49.059,50.347,48.941,50.286,48.94Z" transform="translate(-39.903 -48.504)" stroke="#000" stroke-miterlimit="10" stroke-width="0.5"/>
                <path id="Path_1986" data-name="Path 1986" d="M41.729,52.041a8.746,8.746,0,0,1-.165-.889c-.029-.3-.031-.6-.032-.893,0-.059-.015-.192-.086-.2s-.087.142-.086.194c0,.337.006.677.04,1.013a2.792,2.792,0,0,0,.218.962c.025.048.062.063.093.014A.3.3,0,0,0,41.729,52.041Z" transform="translate(-40.012 -48.61)" stroke="#000" stroke-miterlimit="10" stroke-width="0.5"/>
                <path id="Path_1987" data-name="Path 1987" d="M49.26,50.482c-.069-.037-.1.084-.106.135-.094.613-.126,1.238-.258,1.843a.226.226,0,0,0,.021.179c.037.043.068-.005.079-.046a14.543,14.543,0,0,0,.326-1.87C49.331,50.656,49.325,50.517,49.26,50.482Z" transform="translate(-40.576 -48.648)" stroke="#000" stroke-miterlimit="10" stroke-width="0.5"/>
                <path id="Path_1988" data-name="Path 1988" d="M48.709,54.7c-.059-.034-.083.074-.091.114a8.523,8.523,0,0,1-.239,1A.249.249,0,0,0,48.4,56c.025.041.062.038.081-.01a5.43,5.43,0,0,0,.282-1.085C48.77,54.846,48.762,54.732,48.709,54.7Z" transform="translate(-40.538 -49.04)" stroke="#000" stroke-miterlimit="10" stroke-width="0.5"/>
                <path id="Path_1989" data-name="Path 1989" d="M47.9,58.228c-.012-.045-.059-.123-.1-.061-.219.317-.378.678-.581,1.007a.263.263,0,0,0-.022.2c.011.041.049.1.087.053.224-.3.377-.656.591-.963A.3.3,0,0,0,47.9,58.228Z" transform="translate(-40.449 -49.361)" stroke="#000" stroke-miterlimit="10" stroke-width="0.5"/>
                <path id="Path_1990" data-name="Path 1990" d="M42.223,55.644a11.766,11.766,0,0,1-.345-2.1c-.014-.063-.062-.122-.113-.068a.326.326,0,0,0-.03.254,6.714,6.714,0,0,0,.407,2.149c.031.053.073,0,.086-.037A.288.288,0,0,0,42.223,55.644Z" transform="translate(-40.039 -48.925)" stroke="#000" stroke-miterlimit="10" stroke-width="0.5"/>
                <path id="Path_1991" data-name="Path 1991" d="M43.183,58.446a5.125,5.125,0,0,1-.371-.617,3.675,3.675,0,0,1-.216-.678c-.013-.057-.064-.131-.114-.069a.335.335,0,0,0-.03.256,2.56,2.56,0,0,0,.68,1.381c.043.036.073-.058.078-.085A.269.269,0,0,0,43.183,58.446Z" transform="translate(-40.093 -49.26)" stroke="#000" stroke-miterlimit="10" stroke-width="0.5"/>
                <path id="Path_1992" data-name="Path 1992" d="M46.129,60.128a2.281,2.281,0,0,1-2.029-.148c-.066-.038-.085.181-.026.216a1.979,1.979,0,0,0,2.077.109C46.194,60.278,46.191,60.1,46.129,60.128Z" transform="translate(-40.213 -49.531)" stroke="#000" stroke-miterlimit="10" stroke-width="0.5"/>
              </g>
            </g>
          </g>
        </g>
      </g>
    </g>
  </g>
</svg>
