<svg xmlns="http://www.w3.org/2000/svg" width="15.618" height="20.083" viewBox="0 0 15.618 20.083">
  <g id="Group_1998" data-name="Group 1998" transform="translate(0.356 0.27)">
    <g id="Group_1997" data-name="Group 1997">
      <g id="Group_1996" data-name="Group 1996">
        <g id="Phone">
          <path id="Path_1949" data-name="Path 1949" d="M243.325,2043.244a.75.75,0,0,1,.294.146,6.715,6.715,0,0,1,1.674,4.48,6.644,6.644,0,0,1-1.556,1.9s0,.937,1.674,3.543c1.713,2.614,2.565,3,2.565,3a6.572,6.572,0,0,1,2.416-.615,6.708,6.708,0,0,1,3.417,3.392c.217,1.066-1.753,2.064-1.753,2.064a3.493,3.493,0,0,1-1.334-.047c-3.463-.753-7.079-6.227-7.262-6.511-.091-.142-4.678-7.335-2.446-10.475,0,0,1.416-1.078,2.311-.883m.169-.778a4.213,4.213,0,0,0-2.953,1.028l-.1.061-.065.108c-2.511,3.487,1.868,10.512,2.416,11.365.426.663,4.059,6.059,7.755,6.864a4.057,4.057,0,0,0,1.624.027l.125-.013.1-.061c.41-.2,2.5-1.371,2.182-2.907a7.469,7.469,0,0,0-3.909-3.948l-.147-.073-.164.005a6.7,6.7,0,0,0-2.312.515,12,12,0,0,1-2.019-2.518,11.226,11.226,0,0,1-1.459-2.844,8.627,8.627,0,0,0,1.421-1.85l.073-.147,0-.164a7.61,7.61,0,0,0-2-5.2A1.331,1.331,0,0,0,243.494,2042.466Z" transform="translate(-239.61 -2042.425)" fill="#fff" stroke="#fff" stroke-miterlimit="10" stroke-width="0.5"/>
        </g>
      </g>
    </g>
  </g>
</svg>
