<svg xmlns="http://www.w3.org/2000/svg" width="21.015" height="21.001" viewBox="0 0 21.015 21.001">
  <g id="Group_2011" data-name="Group 2011" transform="translate(-105.221 -1524.397)">
    <path id="Path_1961" data-name="Path 1961" d="M115.8,1524.952l2.306,7.462.073.054h7.47a.077.077,0,0,1,.047.138l-6.05,4.622-.027.084,2.309,7.472a.077.077,0,0,1-.12.084l-6.035-4.61a.077.077,0,0,0-.093,0l-6.036,4.61a.077.077,0,0,1-.12-.084l2.309-7.472-.026-.084-6.05-4.622a.077.077,0,0,1,.046-.138h7.47l.074-.054,2.306-7.462A.077.077,0,0,1,115.8,1524.952Z" fill="#f7cd25" stroke="#f7cd25" stroke-miterlimit="10" stroke-width="1"/>
  </g>
</svg>
